PathFileType	4	(X/Y/Z)	C:/Users/opensim2020/Desktop/walking_exp_matlab/subject02_walking07_straight_01.trc	
DataRate	CameraRate	NumFrames	NumMarkers	Units	OrigDataRate	OrigDataStartFrame	OrigNumFrames	
100.00	100.00	5	50	mm	100.00	802	176	
Frame#	Time	LFHD			RFHD			LBHD			RBHD			C7			T10			CLAV			STRN			RBAK			LSHO			LUPA			LELB			LFRM			LWRA			LWRB			LFIN			RSHO			RUPA			RELB			RFRM			RWRA			RWRB			RFIN			LASI			RASI			LPSI			RPSI			LTHI			LKNE			LTIB			LANK			LHEE			LTOE			RTHI			RKNE			RTIB			RANK			RHEE			RTOE			*39			*40			*41			*42			*43			*44			*45			*46			*47			*48			*49			
		X1	Y1	Z1	X2	Y2	Z2	X3	Y3	Z3	X4	Y4	Z4	X5	Y5	Z5	X6	Y6	Z6	X7	Y7	Z7	X8	Y8	Z8	X9	Y9	Z9	X10	Y10	Z10	X11	Y11	Z11	X12	Y12	Z12	X13	Y13	Z13	X14	Y14	Z14	X15	Y15	Z15	X16	Y16	Z16	X17	Y17	Z17	X18	Y18	Z18	X19	Y19	Z19	X20	Y20	Z20	X21	Y21	Z21	X22	Y22	Z22	X23	Y23	Z23	X24	Y24	Z24	X25	Y25	Z25	X26	Y26	Z26	X27	Y27	Z27	X28	Y28	Z28	X29	Y29	Z29	X30	Y30	Z30	X31	Y31	Z31	X32	Y32	Z32	X33	Y33	Z33	X34	Y34	Z34	X35	Y35	Z35	X36	Y36	Z36	X37	Y37	Z37	X38	Y38	Z38	X39	Y39	Z39	X40	Y40	Z40	X41	Y41	Z41	X42	Y42	Z42	X43	Y43	Z43	X44	Y44	Z44	X45	Y45	Z45	X46	Y46	Z46	X47	Y47	Z47	X48	Y48	Z48	X49	Y49	Z49	X50	Y50	Z50	

155	1.540	1370.10876	423.57916	1767.34802	1511.94446	420.15338	1742.92139	1349.76782	325.03329	1654.64124	1489.38721	310.59399	1624.82690	1419.93872	291.36603	1523.70850	1437.51550	246.49284	1250.32532	1406.72729	432.18088	1464.17102	1415.05566	490.58759	1291.26978	1490.54224	241.84163	1352.95532	1237.85510	359.77859	1500.29846	1164.00415	343.11722	1296.70032	1162.95715	338.08829	1155.28052	1151.61719	338.88895	1024.66309	1184.12329	386.32233	893.83362	1148.80469	341.78717	901.32019	1150.47937	350.60522	833.73328	1604.58801	378.56702	1497.05579	1695.61829	355.13010	1308.78467	1711.24365	371.05795	1162.44263	1733.58679	401.03430	1046.36377	1716.44189	448.37817	919.63611	1750.59021	402.82693	916.81097	1754.24292	440.90762	854.98779	1294.19653	465.76297	983.27698	1550.79297	496.64731	985.05334	1398.98877	268.16833	1030.74915	1513.71179	276.38962	1037.97278	1245.65344	430.82159	671.11957	1267.16248	422.84689	486.20715	1296.82153	278.25845	374.52435	1340.75671	154.78938	193.00095	1403.22388	127.22952	185.16701	1296.17456	239.48389	70.21133	1622.07715	447.46103	679.75439	1576.24548	450.81778	469.94141	1580.12476	415.28799	283.71176	1539.06274	400.17719	91.58041	1484.89722	363.55975	38.60927	1545.94556	553.60010	40.58625	1453.42603	300.02756	1790.93311																														 
156	1.550	1369.61780	432.65659	1768.37781	1511.59058	429.66483	1744.02271	1349.76306	334.15750	1655.54224	1489.73059	320.24146	1625.94983	1420.50171	299.93048	1525.01978	1438.59766	255.79422	1251.61719	1406.27808	441.57968	1465.12207	1414.63074	499.73077	1292.13184	1491.77527	251.54626	1354.56860	1237.94165	368.04889	1501.25171	1164.30518	348.59561	1297.76746	1163.79321	341.25266	1156.63074	1151.76086	339.28061	1026.12610	1185.73718	383.00992	893.84137	1149.44177	339.48776	902.62878	1152.25562	345.86047	834.49457	1604.44434	389.08810	1498.59839	1695.92981	368.44012	1310.09387	1711.64160	385.61996	1163.85522	1734.13940	417.49738	1048.45239	1716.28625	465.79404	922.02386	1751.21582	420.88580	918.87109	1754.53674	459.80011	857.51227	1294.16833	474.44031	985.46191	1550.82227	504.88583	985.65857	1399.20435	276.94797	1031.87500	1513.94507	285.04456	1039.11682	1245.09900	444.09750	673.32861	1266.97705	440.53574	488.16373	1296.80200	298.95383	372.73233	1340.63110	180.64159	187.66731	1402.89966	153.11960	178.82050	1295.06445	269.29617	68.50497	1621.46289	451.07822	679.66846	1575.87598	453.17752	469.85983	1579.98706	416.21786	283.98456	1538.84326	400.39383	91.73516	1484.93127	364.24612	38.07896	1545.94165	553.71051	40.32552	1453.61292	309.45383	1792.03638																														 
157	1.560	1369.36841	441.77695	1769.43066	1511.13037	439.21805	1745.00415	1349.68750	343.47006	1656.32751	1490.02698	329.67374	1626.74512	1420.83923	309.31628	1525.98523	1439.71497	264.99646	1252.82837	1405.78589	450.94553	1466.01221	1414.20447	508.79486	1292.88965	1492.62207	261.00354	1356.03760	1238.03467	376.19067	1502.07312	1164.40466	353.99112	1298.86707	1164.49023	344.34311	1158.04688	1152.80676	340.16458	1027.36731	1187.27112	380.09543	894.15942	1150.06409	337.59122	904.05322	1153.86755	341.91043	835.47040	1603.73767	399.25967	1499.84412	1696.12842	381.71497	1311.42236	1712.35730	400.55688	1165.55322	1734.17834	433.94171	1050.43018	1716.03137	483.33276	924.54926	1751.64917	439.05432	920.99750	1754.66089	478.76474	860.15021	1294.47168	483.47653	987.47406	1550.84058	512.94409	986.23987	1399.04126	285.68933	1032.96375	1513.80103	293.63290	1040.01624	1244.44727	457.03552	675.55737	1266.72351	457.86298	490.05429	1296.40369	319.70645	370.39722	1340.21118	207.23712	181.63023	1402.57434	179.98009	171.62413	1293.83032	300.56335	66.46852	1620.84473	454.49023	679.66858	1575.53198	455.83759	469.76563	1579.66309	417.84976	284.09155	1538.75305	400.76913	91.98290	1485.01843	363.97357	38.51888	1546.05200	553.88177	40.17272	1453.16150	318.73746	1792.78259	-3357.13135	2845.84692	1033.89783																											 
158	1.570	1368.80066	451.08853	1770.02563	1510.62073	448.82297	1745.86829	1349.39612	352.72290	1657.06824	1489.45508	339.21777	1627.41248	1421.12244	318.91797	1526.84570	1440.69324	274.10483	1253.93848	1405.24329	460.25488	1466.77588	1413.78516	517.79346	1293.54395	1493.56348	270.36487	1357.43359	1237.85864	384.12817	1502.62549	1164.54834	359.24753	1299.99194	1164.89685	347.04346	1159.29260	1153.24646	340.64743	1028.96216	1188.55127	377.57306	894.61194	1150.64282	336.03806	905.31958	1155.29932	338.20261	836.63226	1603.37769	409.67191	1501.15100	1696.31287	394.84784	1312.67798	1712.54468	415.22867	1166.93555	1733.97900	450.14200	1052.20630	1715.71838	501.13556	927.05084	1751.93713	457.22852	923.13428	1754.52930	497.69965	862.80219	1295.07483	492.76559	989.40503	1550.80615	520.85010	986.70569	1398.41956	294.45441	1034.02808	1513.40503	301.34659	1040.91162	1243.66260	469.78235	677.64081	1266.33203	474.86276	491.86237	1295.57861	340.47980	367.47577	1339.46802	234.42622	174.98918	1401.64624	207.39462	163.47110	1292.35571	332.20718	64.00520	1620.37183	458.90430	679.62262	1575.25562	458.61475	469.54889	1579.39868	419.76236	284.09937	1538.62976	401.05069	92.09316	1484.63391	364.12607	38.53378	1546.16125	554.01117	40.06719	1452.89954	328.18661	1793.54993	-3356.82715	2845.86548	1033.87830																											 
159	1.580	1368.13220	460.29276	1770.66528	1510.00671	458.46048	1746.59521	1349.16016	361.89700	1657.78064	1489.15430	348.81271	1628.19470	1421.29895	327.69812	1527.76025	1441.46362	283.24179	1254.84729	1404.62146	469.49280	1467.44409	1413.27441	526.73279	1294.07397	1494.26050	279.63885	1358.52209	1237.96106	392.32642	1503.23669	1164.51819	364.27917	1300.83008	1164.95557	349.49899	1160.48816	1153.40857	341.19540	1029.99805	1189.56824	375.33444	895.18262	1151.11267	334.90451	906.60065	1156.45789	335.23975	837.75848	1603.07397	420.04407	1502.41113	1696.43262	407.84082	1313.88599	1713.03943	430.13733	1168.54932	1734.14575	466.58142	1054.28271	1715.39221	518.99652	929.76550	1752.00342	475.39661	925.24725	1754.18433	516.60748	865.24042	1295.89648	502.04965	991.06427	1550.84631	528.64185	987.00818	1397.44995	303.22110	1035.09546	1512.60608	309.73331	1041.49817	1242.99963	482.40729	679.71942	1265.86133	491.33368	493.56644	1294.50745	361.24048	364.01849	1338.42078	262.19040	167.72844	1400.56409	235.52505	154.89374	1290.76672	364.57120	61.64068	1619.54492	462.79224	679.10449	1575.07568	461.53412	469.47726	1579.08643	421.68564	284.15399	1538.50623	401.34433	92.22968	1483.95874	363.48883	38.95995	1546.24951	554.08850	39.92207	1452.54724	337.67163	1794.25574	-3356.90405	2845.81299	1033.92969																											 
